<?xml version="1.0" standalone="no"?>
<!DOCTYPE svg PUBLIC "-//W3C//DTD SVG 20010904//EN"
 "http://www.w3.org/TR/2001/REC-SVG-20010904/DTD/svg10.dtd">
<svg version="1.0" xmlns="http://www.w3.org/2000/svg"
 width="512.000000pt" height="512.000000pt" viewBox="0 0 512.000000 512.000000"
 preserveAspectRatio="xMidYMid meet">
<metadata>
Created by potrace 1.14, written by Peter Selinger 2001-2017
</metadata>
<g transform="translate(0.000000,512.000000) scale(0.100000,-0.100000)"
fill="#000000" stroke="none">
<path d="M1050 4746 l0 -376 -225 0 -225 0 0 -225 0 -225 -300 0 -300 0 0
-1810 0 -1810 803 -1 c441 -1 816 -3 832 -5 173 -19 388 -126 506 -249 l43
-45 375 0 376 0 50 51 c125 127 342 226 530 243 28 2 400 5 828 5 l777 1 0
1660 0 1660 -300 0 -300 0 0 225 0 225 -567 -1 c-608 -1 -663 -5 -853 -55
-163 -42 -303 -101 -448 -186 -46 -27 -85 -48 -87 -46 -2 2 -7 42 -10 88 -32
465 -324 898 -746 1106 -196 97 -373 138 -621 143 l-138 3 0 -376z"/>
</g>
</svg>
